<svg id="shop" xmlns="http://www.w3.org/2000/svg" width="31.844" height="31.844" viewBox="0 0 31.844 31.844">
  <path id="Path_656" data-name="Path 656" d="M24.883,17.267A7.953,7.953,0,0,1,20.9,16.2a7.953,7.953,0,0,1-3.98,1.069H14.268a7.879,7.879,0,0,1-3.98-1.085,7.876,7.876,0,0,1-3.98,1.085H4.98A7.893,7.893,0,0,1,1,16.189v6.386a3.98,3.98,0,0,0,3.98,3.98H26.21a3.98,3.98,0,0,0,3.98-3.98V16.19a7.905,7.905,0,0,1-3.98,1.077Z" transform="translate(0.327 5.289)" fill="#fff"/>
  <path id="Path_657" data-name="Path 657" d="M22.556,0V7.961H19.9V0H11.941V7.961H9.288V0H2.919L.032,12.98,0,14.6A5.307,5.307,0,0,0,5.307,19.9H6.634a5.274,5.274,0,0,0,3.98-1.834A5.274,5.274,0,0,0,14.6,19.9h2.654a5.294,5.294,0,0,0,3.98-1.8,5.294,5.294,0,0,0,3.98,1.8h1.327A5.307,5.307,0,0,0,31.844,14.6V13.268L28.925,0Z" fill="#fff"/>
</svg>
