<svg xmlns="http://www.w3.org/2000/svg" width="25.322" height="33.762" viewBox="0 0 25.322 33.762">
  <path id="document-signed" d="M18.474,9.847V0H7.22A4.22,4.22,0,0,0,3,4.22V33.762H28.322V9.847Zm-9.847,4.22H22.695v2.814H8.627Zm0,5.627H22.695v2.814H8.627Zm8.63,9.847a4.437,4.437,0,0,1-2.794-.993c-.442-.314-.6-.414-.931-.414a4,4,0,0,0-2.512,1l-1.981-2a6.7,6.7,0,0,1,4.493-1.819,4.115,4.115,0,0,1,2.562.934,1.737,1.737,0,0,0,1.163.473c1.02,0,2.375-1.484,2.871-2.2l2.321,1.59C22.209,26.465,20.03,29.542,17.257,29.542ZM21.288.308a5.627,5.627,0,0,1,2.231,1.341L26.673,4.8a5.583,5.583,0,0,1,1.346,2.231H21.288Z" transform="translate(-3)"/>
</svg>
