<svg width="263" height="45" viewBox="0 0 263 45" fill="none" xmlns="http://www.w3.org/2000/svg">
<g clip-path="url(#clip0_201_78)">
<path d="M14.0288 15.3545V13.1278V0H0V45H14.0288V32.7031V29.6123V15.3545Z" fill="#CBD02E"/>
<path d="M58.1009 45H38.2782L26.1698 32.6366L22.687 29.0805V15.9195L38.2782 0H58.1009L36.0649 22.5L58.1009 45Z" fill="#CBD02E"/>
<path d="M75.645 25.1256V21.37V10.901H72.1297V34.0657H75.645V31.6063V29.7452V25.1256Z" fill="black"/>
<path d="M86.9723 17.1159H82.7083L77.9235 22.5332L77.9886 27.1861L83.6848 34.0657H87.7209L80.1694 24.6935L86.9723 17.1159Z" fill="black"/>
<path d="M93.5798 21.4697V17.1159H90.0645V34.0657H93.5798V26.1226C93.5798 22.5665 95.7281 20.2068 98.8854 20.2068C99.276 20.2068 99.5689 20.24 99.8944 20.3065V16.9165C99.5364 16.8168 99.2109 16.7836 98.8528 16.7836C95.8257 16.7836 94.1657 18.9439 93.5798 21.4697Z" fill="black"/>
<path d="M110.115 29.7119L105.07 17.1159H101.457L108.39 33.9328L105.656 40.2474H109.138L111.742 34.0657L118.773 17.1159H115.128L110.115 29.7119Z" fill="black"/>
<path d="M130.524 16.7836C127.496 16.7836 125.381 18.4786 124.762 19.808H124.665V17.1159H121.149V40.2474H124.665V31.3405H124.762C125.381 32.6699 127.464 34.3648 130.524 34.3648C134.462 34.3648 138.563 31.4069 138.563 25.5576C138.563 19.7083 134.429 16.7836 130.524 16.7836ZM129.84 31.1411C127.171 31.1411 124.567 29.2467 124.567 25.5908C124.567 21.935 127.138 20.0406 129.84 20.0406C132.477 20.0406 135.08 21.935 135.08 25.5908C135.08 29.2467 132.509 31.1411 129.84 31.1411Z" fill="black"/>
<path d="M145.854 12.7622H142.306V17.0827H139.995V19.9741H142.306V29.9114C142.306 32.9357 144.097 34.1987 146.603 34.1987C147.482 34.1987 148.588 34.0325 149.174 33.5007V30.6758C148.556 30.9084 148.035 30.9749 147.645 30.9749C146.343 30.9749 145.822 30.2105 145.822 29.2467V19.9409H149.174V17.0495H145.822V12.7622H145.854Z" fill="black"/>
<path d="M159.785 16.7836C155.489 16.7836 151.095 19.8744 151.095 25.5908C151.095 31.3072 155.456 34.3981 159.785 34.3981C164.082 34.3981 168.476 31.3072 168.476 25.5908C168.476 19.8744 164.115 16.7836 159.785 16.7836ZM159.785 31.1078C157.084 31.1078 154.578 29.0805 154.578 25.5908C154.578 22.1012 157.084 20.0739 159.785 20.0739C162.487 20.0739 164.961 22.1012 164.961 25.5908C164.961 29.0805 162.52 31.1078 159.785 31.1078Z" fill="black"/>
<path d="M190.219 16.7836C187.388 16.7836 185.565 18.2127 184.653 19.8744C183.644 17.7474 181.789 16.7836 179.608 16.7836C177.102 16.7836 175.539 18.0133 174.693 19.5089V17.0827H171.178V34.0325H174.693V24.3611C174.693 21.6359 176.158 20.0739 178.436 20.0739C180.65 20.0739 181.952 21.6359 181.952 24.3611V34.0657H185.5V24.3611C185.5 21.6359 186.932 20.0739 189.21 20.0739C191.424 20.0739 192.726 21.6359 192.726 24.3611V34.0657H196.274V24.1617C196.241 19.0436 193.702 16.7836 190.219 16.7836Z" fill="black"/>
<path d="M207.275 16.7836C203.076 16.7836 198.943 19.8744 198.943 25.5908C198.943 31.2408 203.044 34.3981 207.536 34.3981C210.335 34.3981 212.744 33.2349 214.176 31.4069L212.516 29.6455C211.311 30.8087 209.716 31.4069 207.926 31.4069C205.094 31.4069 202.816 29.9114 202.263 26.9867H215.282C216.064 19.8412 211.474 16.7836 207.275 16.7836ZM202.23 24.2947C202.751 21.3035 204.964 19.8744 207.308 19.8744C209.684 19.8744 211.962 21.37 212.158 24.2947H202.23Z" fill="black"/>
<path d="M221.597 21.4697V17.1159H218.082V34.0657H221.597V26.1226C221.597 22.5665 223.745 20.2068 226.903 20.2068C227.293 20.2068 227.586 20.24 227.912 20.3065V16.9165C227.554 16.8168 227.228 16.7836 226.87 16.7836C223.843 16.7836 222.183 18.9439 221.597 21.4697Z" fill="black"/>
<path d="M238.034 20.0739C239.922 20.0739 241.55 21.0377 242.494 22.6329L245.098 20.9712C243.568 18.2127 240.899 16.7836 237.969 16.7836C233.64 16.7836 229.279 19.8744 229.279 25.5908C229.279 31.3072 233.608 34.3981 237.969 34.3981C240.866 34.3981 243.568 32.969 245.098 30.2105L242.494 28.5487C241.55 30.1108 239.922 31.1078 238.034 31.1078C235.365 31.1078 232.794 29.0805 232.794 25.5908C232.794 22.1012 235.365 20.0739 238.034 20.0739Z" fill="black"/>
<path d="M256.653 16.7836C253.984 16.7836 252.226 18.0798 251.315 19.6418V10.901H247.799V34.0325H251.315V24.6603C251.315 21.7024 253.007 20.0406 255.416 20.0406C257.89 20.0406 259.485 21.7024 259.485 24.6603V34.0325H263V24.062C263 18.9771 260.07 16.7836 256.653 16.7836Z" fill="black"/>
</g>
<defs>
<clipPath id="clip0_201_78">
<rect width="263" height="45" fill="white"/>
</clipPath>
</defs>
</svg>
