<?xml version="1.0" encoding="utf-8"?>
<!-- Generator: Adobe Illustrator 24.0.2, SVG Export Plug-In . SVG Version: 6.00 Build 0)  -->
<svg version="1.1" id="Layer_1" xmlns="http://www.w3.org/2000/svg" xmlns:xlink="http://www.w3.org/1999/xlink" x="0px" y="0px"
	 viewBox="0 0 808 135.4" style="enable-background:new 0 0 808 135.4;" xml:space="preserve">
<style type="text/css">
	.st0{fill:#CBD02E;}
</style>
<g>
	<g>
		<polygon class="st0" points="43.1,46.2 43.1,39.5 43.1,0 0,0 0,135.4 43.1,135.4 43.1,98.4 43.1,89.1 		"/>
		<polygon class="st0" points="178.5,135.4 117.6,135.4 80.4,98.2 69.7,87.5 69.7,47.9 117.6,0 178.5,0 110.8,67.7 		"/>
	</g>
	<g>
		<polygon points="232.4,75.6 232.4,64.3 232.4,32.8 221.6,32.8 221.6,102.5 232.4,102.5 232.4,95.1 232.4,89.5 		"/>
		<polygon points="267.2,51.5 254.1,51.5 239.4,67.8 239.6,81.8 257.1,102.5 269.5,102.5 246.3,74.3 		"/>
		<path d="M287.5,64.6V51.5h-10.8v51h10.8V78.6c0-10.7,6.6-17.8,16.3-17.8c1.2,0,2.1,0.1,3.1,0.3V50.9c-1.1-0.3-2.1-0.4-3.2-0.4
			C294.4,50.5,289.3,57,287.5,64.6z"/>
		<polygon points="338.3,89.4 322.8,51.5 311.7,51.5 333,102.1 324.6,121.1 335.3,121.1 343.3,102.5 364.9,51.5 353.7,51.5 		"/>
		<path d="M401,50.5c-9.3,0-15.8,5.1-17.7,9.1H383v-8.1h-10.8v69.6H383V94.3h0.3c1.9,4,8.3,9.1,17.7,9.1c12.1,0,24.7-8.9,24.7-26.5
			S413,50.5,401,50.5z M398.9,93.7c-8.2,0-16.2-5.7-16.2-16.7c0-11,7.9-16.7,16.2-16.7c8.1,0,16.1,5.7,16.1,16.7
			C415,88,407.1,93.7,398.9,93.7z"/>
		<path d="M448.1,38.4h-10.9v13h-7.1v8.7h7.1v29.9c0,9.1,5.5,12.9,13.2,12.9c2.7,0,6.1-0.5,7.9-2.1v-8.5c-1.9,0.7-3.5,0.9-4.7,0.9
			c-4,0-5.6-2.3-5.6-5.2v-28h10.3v-8.7h-10.3V38.4z"/>
		<path d="M490.9,50.5c-13.2,0-26.7,9.3-26.7,26.5s13.4,26.5,26.7,26.5c13.2,0,26.7-9.3,26.7-26.5S504.2,50.5,490.9,50.5z
			 M490.9,93.6c-8.3,0-16-6.1-16-16.6s7.7-16.6,16-16.6c8.3,0,15.9,6.1,15.9,16.6S499.3,93.6,490.9,93.6z"/>
		<path d="M584.4,50.5c-8.7,0-14.3,4.3-17.1,9.3c-3.1-6.4-8.8-9.3-15.5-9.3c-7.7,0-12.5,3.7-15.1,8.2v-7.3h-10.8v51h10.8V73.3
			c0-8.2,4.5-12.9,11.5-12.9c6.8,0,10.8,4.7,10.8,12.9v29.2h10.9V73.3c0-8.2,4.4-12.9,11.4-12.9c6.8,0,10.8,4.7,10.8,12.9v29.2h10.9
			V72.7C602.9,57.3,595.1,50.5,584.4,50.5z"/>
		<path d="M636.8,50.5c-12.9,0-25.6,9.3-25.6,26.5c0,17,12.6,26.5,26.4,26.5c8.6,0,16-3.5,20.4-9l-5.1-5.3
			c-3.7,3.5-8.6,5.3-14.1,5.3c-8.7,0-15.7-4.5-17.4-13.3h40C663.8,59.7,649.7,50.5,636.8,50.5z M621.3,73.1
			c1.6-9,8.4-13.3,15.6-13.3c7.3,0,14.3,4.5,14.9,13.3H621.3z"/>
		<path d="M680.8,64.6V51.5H670v51h10.8V78.6c0-10.7,6.6-17.8,16.3-17.8c1.2,0,2.1,0.1,3.1,0.3V50.9c-1.1-0.3-2.1-0.4-3.2-0.4
			C687.7,50.5,682.6,57,680.8,64.6z"/>
		<path d="M731.3,60.4c5.8,0,10.8,2.9,13.7,7.7l8-5c-4.7-8.3-12.9-12.6-21.9-12.6c-13.3,0-26.7,9.3-26.7,26.5s13.3,26.5,26.7,26.5
			c8.9,0,17.2-4.3,21.9-12.6l-8-5c-2.9,4.7-7.9,7.7-13.7,7.7c-8.2,0-16.1-6.1-16.1-16.6S723.1,60.4,731.3,60.4z"/>
		<path d="M788.5,50.5c-8.2,0-13.6,3.9-16.4,8.6V32.8h-10.8v69.6h10.8V74.2c0-8.9,5.2-13.9,12.6-13.9c7.6,0,12.5,5,12.5,13.9v28.2
			H808v-30C808,57.1,799,50.5,788.5,50.5z"/>
		<path d="M239.4,67.8"/>
	</g>
</g>
</svg>
